<mxfile host="Electron" agent="Mozilla/5.0 (X11; Linux x86_64) AppleWebKit/537.36 (KHTML, like Gecko) draw.io/24.7.17 Chrome/128.0.6613.36 Electron/32.0.1 Safari/537.36" version="24.7.17">
  <diagram name="Page-1" id="pYFhWjRpLVZ4nRkJkQFB">
    <mxGraphModel dx="1070" dy="719" grid="1" gridSize="10" guides="1" tooltips="1" connect="1" arrows="1" fold="1" page="1" pageScale="1" pageWidth="583" pageHeight="413" math="0" shadow="0">
      <root>
        <mxCell id="0" />
        <mxCell id="1" parent="0" />
        <mxCell id="WfoxoDQ59nY1Z0Lb3G8y-1" value="MediaCow Touch 2 &quot;Paris&quot; - CTCL 2021-2024&lt;br style=&quot;font-size: 16px;&quot;&gt;Description: SMEC-System Video Switch&lt;br style=&quot;font-size: 16px;&quot;&gt;&lt;span style=&quot;background-color: initial; font-size: 16px;&quot;&gt;Created: December 1, 2024&amp;nbsp;&lt;/span&gt;&lt;div style=&quot;font-size: 16px;&quot;&gt;Modified: December 1, 2024&lt;/div&gt;&lt;div style=&quot;font-size: 16px;&quot;&gt;Not to scale&lt;/div&gt;" style="text;html=1;align=left;verticalAlign=top;whiteSpace=wrap;rounded=0;fontSize=16;" parent="1" vertex="1">
          <mxGeometry x="10" width="340" height="110" as="geometry" />
        </mxCell>
        <mxCell id="WfoxoDQ59nY1Z0Lb3G8y-2" value="Block Types" style="swimlane;whiteSpace=wrap;html=1;startSize=20;" parent="1" vertex="1">
          <mxGeometry x="10" y="120" width="200" height="120" as="geometry" />
        </mxCell>
        <mxCell id="WfoxoDQ59nY1Z0Lb3G8y-3" value="Connector" style="rounded=0;whiteSpace=wrap;html=1;fontColor=#000000;fillColor=#999999;fontSize=12;" parent="WfoxoDQ59nY1Z0Lb3G8y-2" vertex="1">
          <mxGeometry x="10" y="30" width="80" height="80" as="geometry" />
        </mxCell>
        <mxCell id="WfoxoDQ59nY1Z0Lb3G8y-4" value="Device" style="rounded=0;whiteSpace=wrap;html=1;fontSize=12;" parent="WfoxoDQ59nY1Z0Lb3G8y-2" vertex="1">
          <mxGeometry x="110" y="30" width="80" height="80" as="geometry" />
        </mxCell>
        <mxCell id="WfoxoDQ59nY1Z0Lb3G8y-29" style="edgeStyle=orthogonalEdgeStyle;rounded=0;orthogonalLoop=1;jettySize=auto;html=1;exitX=0.5;exitY=0;exitDx=0;exitDy=0;entryX=0.5;entryY=1;entryDx=0;entryDy=0;strokeWidth=4;strokeColor=#0000FF;" parent="1" source="WfoxoDQ59nY1Z0Lb3G8y-7" target="WfoxoDQ59nY1Z0Lb3G8y-25" edge="1">
          <mxGeometry relative="1" as="geometry" />
        </mxCell>
        <mxCell id="WfoxoDQ59nY1Z0Lb3G8y-7" value="System eDP" style="rounded=0;whiteSpace=wrap;html=1;fontColor=#000000;fillColor=#999999;fontSize=12;" parent="1" vertex="1">
          <mxGeometry x="240" y="380" width="80" height="20" as="geometry" />
        </mxCell>
        <mxCell id="WfoxoDQ59nY1Z0Lb3G8y-12" style="edgeStyle=orthogonalEdgeStyle;rounded=0;orthogonalLoop=1;jettySize=auto;html=1;exitX=0.5;exitY=0;exitDx=0;exitDy=0;entryX=0.5;entryY=1;entryDx=0;entryDy=0;strokeColor=#00FF00;strokeWidth=4;" parent="1" source="WfoxoDQ59nY1Z0Lb3G8y-8" target="WfoxoDQ59nY1Z0Lb3G8y-22" edge="1">
          <mxGeometry relative="1" as="geometry">
            <mxPoint x="379.99999999999994" y="340" as="targetPoint" />
          </mxGeometry>
        </mxCell>
        <mxCell id="WfoxoDQ59nY1Z0Lb3G8y-8" value="SMEC TMDS" style="rounded=0;whiteSpace=wrap;html=1;fontColor=#000000;fillColor=#999999;fontSize=12;" parent="1" vertex="1">
          <mxGeometry x="340" y="380" width="80" height="20" as="geometry" />
        </mxCell>
        <mxCell id="WfoxoDQ59nY1Z0Lb3G8y-13" value="Connector Types" style="swimlane;whiteSpace=wrap;html=1;startSize=20;" parent="1" vertex="1">
          <mxGeometry x="10" y="260" width="200" height="140" as="geometry" />
        </mxCell>
        <mxCell id="WfoxoDQ59nY1Z0Lb3G8y-16" value="DisplayPort" style="swimlane;whiteSpace=wrap;html=1;startSize=20;fontSize=10;" parent="WfoxoDQ59nY1Z0Lb3G8y-13" vertex="1">
          <mxGeometry y="20" width="100" height="60" as="geometry" />
        </mxCell>
        <mxCell id="WfoxoDQ59nY1Z0Lb3G8y-20" style="edgeStyle=orthogonalEdgeStyle;rounded=0;orthogonalLoop=1;jettySize=auto;html=1;strokeWidth=4;endArrow=none;endFill=0;strokeColor=#0000FF;" parent="WfoxoDQ59nY1Z0Lb3G8y-16" edge="1">
          <mxGeometry relative="1" as="geometry">
            <mxPoint x="70" y="30" as="targetPoint" />
            <mxPoint x="30" y="50" as="sourcePoint" />
            <Array as="points">
              <mxPoint x="50" y="50" />
              <mxPoint x="50" y="30" />
            </Array>
          </mxGeometry>
        </mxCell>
        <mxCell id="WfoxoDQ59nY1Z0Lb3G8y-17" value="TMDS/HDMI/DVI" style="swimlane;whiteSpace=wrap;html=1;startSize=20;fontSize=10;" parent="WfoxoDQ59nY1Z0Lb3G8y-13" vertex="1">
          <mxGeometry x="100" y="20" width="100" height="60" as="geometry" />
        </mxCell>
        <mxCell id="WfoxoDQ59nY1Z0Lb3G8y-19" style="edgeStyle=orthogonalEdgeStyle;rounded=0;orthogonalLoop=1;jettySize=auto;html=1;strokeWidth=4;endArrow=none;endFill=0;strokeColor=#00FF00;" parent="WfoxoDQ59nY1Z0Lb3G8y-17" edge="1">
          <mxGeometry relative="1" as="geometry">
            <mxPoint x="70" y="30" as="targetPoint" />
            <mxPoint x="30" y="50" as="sourcePoint" />
            <Array as="points">
              <mxPoint x="50" y="50" />
              <mxPoint x="50" y="30" />
            </Array>
          </mxGeometry>
        </mxCell>
        <mxCell id="WfoxoDQ59nY1Z0Lb3G8y-18" value="TTL (TI PanelBus)" style="swimlane;whiteSpace=wrap;html=1;startSize=20;fontSize=10;" parent="WfoxoDQ59nY1Z0Lb3G8y-13" vertex="1">
          <mxGeometry y="80" width="100" height="60" as="geometry" />
        </mxCell>
        <mxCell id="WfoxoDQ59nY1Z0Lb3G8y-21" style="edgeStyle=orthogonalEdgeStyle;rounded=0;orthogonalLoop=1;jettySize=auto;html=1;strokeWidth=4;endArrow=none;endFill=0;strokeColor=#FF0000;" parent="WfoxoDQ59nY1Z0Lb3G8y-18" edge="1">
          <mxGeometry relative="1" as="geometry">
            <mxPoint x="70" y="30" as="targetPoint" />
            <mxPoint x="30" y="50" as="sourcePoint" />
            <Array as="points">
              <mxPoint x="50" y="50" />
              <mxPoint x="50" y="30" />
            </Array>
          </mxGeometry>
        </mxCell>
        <mxCell id="WfoxoDQ59nY1Z0Lb3G8y-28" style="edgeStyle=orthogonalEdgeStyle;rounded=0;orthogonalLoop=1;jettySize=auto;html=1;exitX=0.5;exitY=0;exitDx=0;exitDy=0;entryX=0.5;entryY=1;entryDx=0;entryDy=0;strokeWidth=4;endArrow=classic;endFill=1;strokeColor=#FF0000;" parent="1" source="WfoxoDQ59nY1Z0Lb3G8y-22" target="WfoxoDQ59nY1Z0Lb3G8y-24" edge="1">
          <mxGeometry relative="1" as="geometry" />
        </mxCell>
        <mxCell id="WfoxoDQ59nY1Z0Lb3G8y-22" value="&lt;div&gt;TI&lt;/div&gt;&lt;div&gt;TFP401A&lt;/div&gt;" style="rounded=0;whiteSpace=wrap;html=1;" parent="1" vertex="1">
          <mxGeometry x="350" y="280" width="60" height="60" as="geometry" />
        </mxCell>
        <mxCell id="WfoxoDQ59nY1Z0Lb3G8y-27" style="edgeStyle=orthogonalEdgeStyle;rounded=0;orthogonalLoop=1;jettySize=auto;html=1;exitX=0;exitY=0.5;exitDx=0;exitDy=0;entryX=1;entryY=0.5;entryDx=0;entryDy=0;strokeWidth=4;strokeColor=#0000FF;" parent="1" source="WfoxoDQ59nY1Z0Lb3G8y-24" target="WfoxoDQ59nY1Z0Lb3G8y-25" edge="1">
          <mxGeometry relative="1" as="geometry" />
        </mxCell>
        <mxCell id="WfoxoDQ59nY1Z0Lb3G8y-24" value="IT6505" style="rounded=0;whiteSpace=wrap;html=1;" parent="1" vertex="1">
          <mxGeometry x="350" y="180" width="60" height="60" as="geometry" />
        </mxCell>
        <mxCell id="pwH7cB5qk02c27ZnWfIy-2" style="edgeStyle=orthogonalEdgeStyle;rounded=0;orthogonalLoop=1;jettySize=auto;html=1;exitX=0.5;exitY=0;exitDx=0;exitDy=0;entryX=0.5;entryY=1;entryDx=0;entryDy=0;strokeColor=#0000FF;strokeWidth=4;" edge="1" parent="1" source="WfoxoDQ59nY1Z0Lb3G8y-25" target="pwH7cB5qk02c27ZnWfIy-3">
          <mxGeometry relative="1" as="geometry">
            <mxPoint x="280" y="140" as="targetPoint" />
          </mxGeometry>
        </mxCell>
        <mxCell id="WfoxoDQ59nY1Z0Lb3G8y-25" value="HD3SS212" style="rounded=0;whiteSpace=wrap;html=1;" parent="1" vertex="1">
          <mxGeometry x="250" y="180" width="60" height="60" as="geometry" />
        </mxCell>
        <mxCell id="pwH7cB5qk02c27ZnWfIy-3" value="Display" style="rounded=0;whiteSpace=wrap;html=1;fontColor=#000000;fillColor=#999999;fontSize=12;" vertex="1" parent="1">
          <mxGeometry x="240" y="120" width="80" height="20" as="geometry" />
        </mxCell>
        <mxCell id="pwH7cB5qk02c27ZnWfIy-5" value="DP" style="text;html=1;align=center;verticalAlign=middle;whiteSpace=wrap;rounded=0;fontColor=#0000FF;" vertex="1" parent="1">
          <mxGeometry x="250" y="300" width="30" height="20" as="geometry" />
        </mxCell>
        <mxCell id="pwH7cB5qk02c27ZnWfIy-6" value="DP" style="text;html=1;align=center;verticalAlign=middle;whiteSpace=wrap;rounded=0;fontColor=#0000FF;" vertex="1" parent="1">
          <mxGeometry x="250" y="160" width="30" height="20" as="geometry" />
        </mxCell>
        <mxCell id="pwH7cB5qk02c27ZnWfIy-7" value="DP" style="text;html=1;align=center;verticalAlign=middle;whiteSpace=wrap;rounded=0;fontColor=#0000FF;" vertex="1" parent="1">
          <mxGeometry x="320" y="220" width="30" height="20" as="geometry" />
        </mxCell>
        <mxCell id="pwH7cB5qk02c27ZnWfIy-8" value="TTL" style="text;html=1;align=center;verticalAlign=middle;whiteSpace=wrap;rounded=0;fontColor=#FF0000;" vertex="1" parent="1">
          <mxGeometry x="390" y="250" width="30" height="20" as="geometry" />
        </mxCell>
        <mxCell id="pwH7cB5qk02c27ZnWfIy-9" value="TMDS" style="text;html=1;align=center;verticalAlign=middle;whiteSpace=wrap;rounded=0;fontColor=#00FF00;" vertex="1" parent="1">
          <mxGeometry x="390" y="350" width="40" height="20" as="geometry" />
        </mxCell>
      </root>
    </mxGraphModel>
  </diagram>
</mxfile>
